# xmcd
#
# Track frame offsets:
#	150
#	8357
#	17035
#	30257
#	41967
#	52722
#	61957
#	72992
#	81740
#	91472
#	100325
#	114045
#	124630
#	136822
#	146245
#	160217
#	171750
#	185115
#	196932
#	209325
#	220735
#	234250
#	243675
#	256805
#	268407
#	278155
#
# Disc length: 3837 seconds
#
# Revision: 1
# Processed by: cddbd v1.5.2PL0 Copyright (c) Steve Scherf et al.
# Submitted via: audiograbber 1.83.01
#
DISCID=720efb1a
DTITLE=Various Artist - Ultimate Memphis Country Collection Vol. 2 CD 1
DYEAR=1900
DGENRE=Country
TTITLE0=Johnny Cash - Sugartime
TTITLE1=Jack Clement - Wrong
TTITLE2=Jerry Lee Lewis - You Win Again
TTITLE3=Charlie Rich - The Wedding's Over
TTITLE4=Warren Smith - Sweet Sweet Girl
TTITLE5=Cast King - Round And Round
TTITLE6=Charlie Feathers - Defrost Your Heart
TTITLE7=Gene Simmons - Down On The Border
TTITLE8=Mack Self - Lovin' Memories
TTITLE9=Carl Perkins - Honky Tonk Gal
TTITLE10=Jack Earls - They Can't Keep Me From You
TTITLE11=Dane Stinit - Don't Knock What You Don't Understand
TTITLE12=Roy Orbison - Trying To Get To You
TTITLE13=Ernie Chaffin - Lonesome For My Baby
TTITLE14=Gene Steele - Alimony Blues
TTITLE15=Earl Peterson - Boogie Blues
TTITLE16=Eddie Bond - When They Ring Those Golden Bells
TTITLE17=Malcolm Yelvington - First And Last Love
TTITLE18=Johnny Cash - I Walk The Line
TTITLE19=Mack Self - Willie Brown
TTITLE20=Doug Poindexter - Now She Cares No More For Me
TTITLE21=Jerry Lee Lewis - One Minute Past Eternity
TTITLE22=Charlie Rich - Stay
TTITLE23=Carl Mann - I'll Always Love You
TTITLE24=Carl Perkins - Movie Magg
TTITLE25=Mack Self - Little One
EXTD=
EXTT0=
EXTT1=
EXTT2=
EXTT3=
EXTT4=
EXTT5=
EXTT6=
EXTT7=
EXTT8=
EXTT9=
EXTT10=
EXTT11=
EXTT12=
EXTT13=
EXTT14=
EXTT15=
EXTT16=
EXTT17=
EXTT18=
EXTT19=
EXTT20=
EXTT21=
EXTT22=
EXTT23=
EXTT24=
EXTT25=
PLAYORDER=
